<?xml version="1.0" standalone="no"?>
<!DOCTYPE svg PUBLIC "-//W3C//DTD SVG 20010904//EN"
 "http://www.w3.org/TR/2001/REC-SVG-20010904/DTD/svg10.dtd">
<svg version="1.0" xmlns="http://www.w3.org/2000/svg"
 width="348.000000pt" height="348.000000pt" viewBox="0 0 348.000000 348.000000"
 preserveAspectRatio="xMidYMid meet">
<metadata>
Created by potrace 1.14, written by Peter Selinger 2001-2017
</metadata>
<g transform="translate(0.000000,348.000000) scale(0.100000,-0.100000)"
fill="#000000" stroke="none">
<path d="M539 3471 c-45 -14 -79 -43 -107 -90 l-27 -46 -3 -535 c-3 -571 -2
-585 46 -597 63 -15 67 -10 205 315 l129 302 279 0 279 0 2 -1262 3 -1263 31
-65 c54 -113 142 -184 264 -216 217 -55 438 89 480 315 6 34 10 498 10 1272
l0 1219 284 0 284 0 129 -302 c138 -324 142 -330 205 -315 48 12 49 26 46 597
l-3 535 -27 47 c-15 25 -45 57 -65 70 l-38 23 -1190 2 c-655 1 -1202 -2 -1216
-6z"/>
</g>
</svg>
